<?xml version="1.0" encoding="UTF-8"?>
<svg xmlns="http://www.w3.org/2000/svg" viewBox="0 0 1280 720">
    <rect width="1280" height="720" fill="#F8F9FA" />
    <text x="60" y="70" font-family="Arial Black" font-size="28" fill="#333333">整体业绩概览 · 核心财务指标</text>
    <rect x="60" y="80" width="280" height="4" fill="#2932E1" />
    <path fill="#2932E1" d="M68,120 H1212 A8,8 0 0 1 1220,128 V157 A8,8 0 0 1 1212,165 H68 A8,8 0 0 1 60,157 V128 A8,8 0 0 1 68,120 Z" />
    <text x="150" y="150" font-family="Arial" font-size="13" fill="#FFFFFF">指标</text>
    <text x="400" y="150" font-family="Arial" font-size="13" fill="#FFFFFF">2025 全年</text>
    <text x="580" y="150" font-family="Arial" font-size="13" fill="#FFFFFF">2024 全年</text>
    <text x="760" y="150" font-family="Arial" font-size="13" fill="#FFFFFF">同比变化</text>
    <text x="980" y="150" font-family="Arial" font-size="13" fill="#FFFFFF">关键说明</text>
    <rect x="60" y="170" width="1160" height="50" fill="#FFFFFF" />
    <text x="150" y="200" font-family="Arial" font-size="13" fill="#333">智能云总收入</text>
    <text x="400" y="200" font-family="Arial Black" font-size="22" fill="#2932E1">300</text>
    <text x="580" y="200" font-family="Arial" font-size="14" fill="#666">223.9</text>
    <text x="760" y="200" font-family="Arial Black" font-size="18" fill="#27AE60">+34%</text>
    <text x="980" y="200" font-family="Arial" font-size="12" fill="#666">首次突破 300 亿</text>
    <rect x="60" y="225" width="1160" height="50" fill="#F5F5F5" />
    <text x="150" y="255" font-family="Arial" font-size="13" fill="#555">— 智能云基础设施</text>
    <text x="400" y="255" font-family="Arial" font-size="18" fill="#333">198</text>
    <text x="580" y="255" font-family="Arial" font-size="14" fill="#666">148</text>
    <text x="760" y="255" font-family="Arial" font-size="16" fill="#27AE60">+34%</text>
    <text x="980" y="255" font-family="Arial" font-size="12" fill="#666">AI 算力/存储/网络</text>
    <rect x="60" y="280" width="1160" height="50" fill="#FFFFFF" />
    <text x="150" y="310" font-family="Arial" font-size="13" fill="#555">— AI 应用与服务</text>
    <text x="400" y="310" font-family="Arial" font-size="18" fill="#333">102</text>
    <text x="580" y="310" font-family="Arial" font-size="14" fill="#666">75.9</text>
    <text x="760" y="310" font-family="Arial" font-size="16" fill="#27AE60">+34%</text>
    <text x="980" y="310" font-family="Arial" font-size="12" fill="#666">MaaS、大模型</text>
    <rect x="60" y="335" width="1160" height="50" fill="#FEF9E7" />
    <text x="150" y="365" font-family="Arial" font-size="13" fill="#555">AI 云全栈市占率</text>
    <text x="400" y="365" font-family="Arial Black" font-size="22" fill="#2932E1">40.2%</text>
    <text x="580" y="365" font-family="Arial" font-size="14" fill="#999">—</text>
    <text x="760" y="365" font-family="Arial" font-size="16" fill="#27AE60">领跑</text>
    <text x="980" y="365" font-family="Arial" font-size="12" fill="#666">中国 AI 市场份额首位</text>
    <text x="60" y="680" font-family="Arial" font-size="12" fill="#999999">百度智能云 2025 年财报分析 | 3 / 14</text>
</svg>