<?xml version="1.0" encoding="UTF-8"?>
<svg xmlns="http://www.w3.org/2000/svg" viewBox="0 0 1280 720">
    <rect width="1280" height="720" fill="#F8F9FA" />
    <text x="60" y="70" font-family="Arial Black" font-size="28" fill="#333333">分季度表现 · 季度核心数据</text>
    <rect x="60" y="80" width="280" height="4" fill="#2932E1" />
    <path fill="#FFFFFF" filter="url(#shadow)" d="M68,120 H632 A8,8 0 0 1 640,128 V492 A8,8 0 0 1 632,500 H68 A8,8 0 0 1 60,492 V128 A8,8 0 0 1 68,120 Z" />
    <path fill="#2932E1" d="M68,120 H632 A8,8 0 0 1 640,128 V152 A8,8 0 0 1 632,160 H68 A8,8 0 0 1 60,152 V128 A8,8 0 0 1 68,120 Z" />
    <text x="90" y="147" font-family="Arial" font-size="12" fill="#FFFFFF">季度</text>
    <text x="200" y="147" font-family="Arial" font-size="12" fill="#FFFFFF">收入 (亿)</text>
    <text x="320" y="147" font-family="Arial" font-size="12" fill="#FFFFFF">同比</text>
    <text x="430" y="147" font-family="Arial" font-size="12" fill="#FFFFFF">AI 算力订阅</text>
    <rect x="60" y="165" width="580" height="55" fill="#FFFFFF" />
    <text x="90" y="200" font-family="Arial Black" font-size="16" fill="#333">Q1</text>
    <text x="200" y="200" font-family="Arial" font-size="16" fill="#333">~65</text>
    <text x="320" y="200" font-family="Arial" font-size="16" fill="#555">+28%</text>
    <text x="430" y="200" font-family="Arial" font-size="14" fill="#666">+95%</text>
    <rect x="60" y="220" width="580" height="55" fill="#F8F9FA" />
    <text x="90" y="255" font-family="Arial Black" font-size="16" fill="#333">Q2</text>
    <text x="200" y="255" font-family="Arial" font-size="16" fill="#333">~70</text>
    <text x="320" y="255" font-family="Arial" font-size="16" fill="#555">+31%</text>
    <text x="430" y="255" font-family="Arial" font-size="14" fill="#666">+112%</text>
    <rect x="60" y="275" width="580" height="55" fill="#FFFFFF" />
    <text x="90" y="310" font-family="Arial Black" font-size="16" fill="#333">Q3</text>
    <text x="200" y="310" font-family="Arial" font-size="16" fill="#333">~77</text>
    <text x="320" y="310" font-family="Arial" font-size="16" fill="#555">+32%</text>
    <text x="430" y="310" font-family="Arial" font-size="14" fill="#666">+128%</text>
    <rect x="60" y="330" width="580" height="55" fill="#FEF9E7" />
    <text x="90" y="365" font-family="Arial Black" font-size="16" fill="#333">Q4</text>
    <text x="200" y="365" font-family="Arial" font-size="16" fill="#333">88</text>
    <text x="320" y="365" font-family="Arial Black" font-size="16" fill="#27AE60">+41%</text>
    <text x="430" y="365" font-family="Arial" font-size="14" fill="#666">+143%</text>
    <rect x="60" y="390" width="580" height="50" fill="#E8F6F3" stroke="#1ABC9C" stroke-width="2" />
    <text x="90" y="422" font-family="Arial Black" font-size="14" fill="#1ABC9C">全年</text>
    <text x="200" y="422" font-family="Arial Black" font-size="20" fill="#2932E1">300</text>
    <text x="320" y="422" font-family="Arial Black" font-size="18" fill="#27AE60">+34%</text>
    <text x="430" y="422" font-family="Arial" font-size="12" fill="#666">首次破 300 亿</text>
    <path fill="#FFFFFF" filter="url(#shadow)" d="M688,120 H1212 A8,8 0 0 1 1220,128 V492 A8,8 0 0 1 1212,500 H688 A8,8 0 0 1 680,492 V128 A8,8 0 0 1 688,120 Z" />
    <text x="950" y="150" font-family="Arial" font-size="14" fill="#333" text-anchor="middle">季度收入趋势（亿元）</text>
    <path fill="#5C67FF" opacity="0.6" d="M744,180 H806 A4,4 0 0 1 810,184 V336 A4,4 0 0 1 806,340 H744 A4,4 0 0 1 740,336 V184 A4,4 0 0 1 744,180 Z" />
    <text x="775" y="355" font-family="Arial" font-size="12" fill="#666" text-anchor="middle">Q1</text>
    <text x="775" y="190" font-family="Arial" font-size="11" fill="#333" text-anchor="middle">65</text>
    <path fill="#5C67FF" opacity="0.7" d="M834,180 H896 A4,4 0 0 1 900,184 V356 A4,4 0 0 1 896,360 H834 A4,4 0 0 1 830,356 V184 A4,4 0 0 1 834,180 Z" />
    <text x="865" y="355" font-family="Arial" font-size="12" fill="#666" text-anchor="middle">Q2</text>
    <text x="865" y="190" font-family="Arial" font-size="11" fill="#333" text-anchor="middle">70</text>
    <path fill="#5C67FF" opacity="0.8" d="M924,180 H986 A4,4 0 0 1 990,184 V376 A4,4 0 0 1 986,380 H924 A4,4 0 0 1 920,376 V184 A4,4 0 0 1 924,180 Z" />
    <text x="955" y="355" font-family="Arial" font-size="12" fill="#666" text-anchor="middle">Q3</text>
    <text x="955" y="190" font-family="Arial" font-size="11" fill="#333" text-anchor="middle">77</text>
    <path fill="#2932E1" d="M1014,180 H1076 A4,4 0 0 1 1080,184 V416 A4,4 0 0 1 1076,420 H1014 A4,4 0 0 1 1010,416 V184 A4,4 0 0 1 1014,180 Z" />
    <text x="1045" y="355" font-family="Arial" font-size="12" fill="#666" text-anchor="middle">Q4</text>
    <text x="1045" y="190" font-family="Arial" font-size="11" fill="#333" text-anchor="middle">88</text>
    <text x="60" y="680" font-family="Arial" font-size="12" fill="#999999">百度智能云 2025 年财报分析 | 5 / 14</text>
</svg>