<?xml version="1.0" encoding="UTF-8"?>
<svg xmlns="http://www.w3.org/2000/svg" viewBox="0 0 1280 720">
    <rect width="1280" height="720" fill="#F8F9FA" />
    <text x="60" y="70" font-family="Arial Black" font-size="28" fill="#333333">关键战略 · 昆仑芯 AI 芯片</text>
    <rect x="60" y="80" width="280" height="4" fill="#2932E1" />
    <path fill="#FFFFFF" filter="url(#shadow)" d="M72,120 H1208 A12,12 0 0 1 1220,132 V218 A12,12 0 0 1 1208,230 H72 A12,12 0 0 1 60,218 V132 A12,12 0 0 1 72,120 Z" />
    <path fill="#2932E1" d="M72,120 H1208 A12,12 0 0 1 1220,132 V163 A12,12 0 0 1 1208,175 H72 A12,12 0 0 1 60,163 V132 A12,12 0 0 1 72,120 Z" />
    <text x="110" y="158" font-family="Arial Black" font-size="18" fill="#FFFFFF">💡 核心动作</text>
    <text x="640" y="158" font-family="Arial" font-size="15" fill="#E0E0FF" text-anchor="middle">二代昆仑芯（P800）量产，覆盖训练/微调/推理全栈</text>
    <path fill="#FFFFFF" filter="url(#shadow)" d="M72,265 H408 A12,12 0 0 1 420,277 V483 A12,12 0 0 1 408,495 H72 A12,12 0 0 1 60,483 V277 A12,12 0 0 1 72,265 Z" />
    <path fill="#FEF9E7" d="M72,265 H408 A12,12 0 0 1 420,277 V303 A12,12 0 0 1 408,315 H72 A12,12 0 0 1 60,303 V277 A12,12 0 0 1 72,265 Z" />
    <text x="240" y="298" font-family="Arial Black" font-size="15" fill="#F39C12" text-anchor="middle">📈 新增长曲线</text>
    <text x="240" y="360" font-family="Arial Black" font-size="36" fill="#2932E1" text-anchor="middle">超 50 亿元</text>
    <text x="240" y="400" font-family="Arial" font-size="13" fill="#666" text-anchor="middle">芯片相关收入</text>
    <text x="240" y="435" font-family="Arial" font-size="12" fill="#999" text-anchor="middle">成为独立增长引擎</text>
    <text x="240" y="465" font-family="Arial" font-size="11" fill="#999" text-anchor="middle">商业化成功</text>
    <path fill="#FFFFFF" filter="url(#shadow)" d="M452,265 H788 A12,12 0 0 1 800,277 V483 A12,12 0 0 1 788,495 H452 A12,12 0 0 1 440,483 V277 A12,12 0 0 1 452,265 Z" />
    <path fill="#E8F6F3" d="M452,265 H788 A12,12 0 0 1 800,277 V303 A12,12 0 0 1 788,315 H452 A12,12 0 0 1 440,303 V277 A12,12 0 0 1 452,265 Z" />
    <text x="620" y="298" font-family="Arial Black" font-size="15" fill="#1ABC9C" text-anchor="middle">💰 成本优化</text>
    <text x="620" y="360" font-family="Arial Black" font-size="32" fill="#27AE60" text-anchor="middle">-25%~-30%</text>
    <text x="620" y="400" font-family="Arial" font-size="13" fill="#666" text-anchor="middle">云基础设施成本下降</text>
    <text x="620" y="435" font-family="Arial" font-size="12" fill="#999" text-anchor="middle">毛利率改善 +3~+5pct</text>
    <text x="620" y="465" font-family="Arial" font-size="11" fill="#999" text-anchor="middle">自研替代优势</text>
    <path fill="#FFFFFF" filter="url(#shadow)" d="M832,265 H1208 A12,12 0 0 1 1220,277 V483 A12,12 0 0 1 1208,495 H832 A12,12 0 0 1 820,483 V277 A12,12 0 0 1 832,265 Z" />
    <path fill="#EBF5FB" d="M832,265 H1208 A12,12 0 0 1 1220,277 V303 A12,12 0 0 1 1208,315 H832 A12,12 0 0 1 820,303 V277 A12,12 0 0 1 832,265 Z" />
    <text x="1020" y="298" font-family="Arial Black" font-size="15" fill="#2932E1" text-anchor="middle">🛡️ 国产替代壁垒</text>
    <text x="1020" y="350" font-family="Arial" font-size="14" fill="#555" text-anchor="middle">强化自主可控能力</text>
    <text x="1020" y="395" font-family="Arial Black" font-size="28" fill="#27AE60" text-anchor="middle">政企订单 +40%</text>
    <text x="1020" y="435" font-family="Arial" font-size="13" fill="#666" text-anchor="middle">国产芯片首选供应商</text>
    <text x="1020" y="465" font-family="Arial" font-size="11" fill="#999" text-anchor="middle">政策红利 + 技术实力</text>
    <path fill="#F5F5F5" d="M68,525 H1212 A8,8 0 0 1 1220,533 V592 A8,8 0 0 1 1212,600 H68 A8,8 0 0 1 60,592 V533 A8,8 0 0 1 68,525 Z" />
    <text x="640" y="560" font-family="Arial" font-size="13" fill="#666" text-anchor="middle">昆仑芯规模化商用是百度智能云 2025 年核心竞争力之一，实现成本优化与收入增长双赢</text>
    <text x="640" y="585" font-family="Arial" font-size="11" fill="#999" text-anchor="middle">自研芯片战略 | 全栈覆盖 | 外部客户占比 70% | 成本下降 25%+</text>
    <text x="60" y="680" font-family="Arial" font-size="12" fill="#999999">百度智能云 2025 年财报分析 | 10 / 14</text>
</svg>