<?xml version="1.0" encoding="UTF-8"?>
<svg xmlns="http://www.w3.org/2000/svg" viewBox="0 0 1280 720">
    <rect width="1280" height="720" fill="#F8F9FA" />
    <text x="60" y="70" font-family="Arial Black" font-size="28" fill="#333333">关键战略 · 千帆 MaaS 平台</text>
    <rect x="60" y="80" width="280" height="4" fill="#2932E1" />
    <path fill="#FFFFFF" filter="url(#shadow)" d="M72,120 H1208 A12,12 0 0 1 1220,132 V218 A12,12 0 0 1 1208,230 H72 A12,12 0 0 1 60,218 V132 A12,12 0 0 1 72,120 Z" />
    <path fill="#2932E1" d="M72,120 H1208 A12,12 0 0 1 1220,132 V163 A12,12 0 0 1 1208,175 H72 A12,12 0 0 1 60,163 V132 A12,12 0 0 1 72,120 Z" />
    <text x="110" y="158" font-family="Arial Black" font-size="18" fill="#FFFFFF">💡 核心动作</text>
    <text x="640" y="158" font-family="Arial" font-size="15" fill="#E0E0FF" text-anchor="middle">一站式模型商店、行业大模型定制、智能体开发工具链</text>
    <path fill="#FFFFFF" filter="url(#shadow)" d="M72,265 H408 A12,12 0 0 1 420,277 V483 A12,12 0 0 1 408,495 H72 A12,12 0 0 1 60,483 V277 A12,12 0 0 1 72,265 Z" />
    <path fill="#FEF9E7" d="M72,265 H408 A12,12 0 0 1 420,277 V303 A12,12 0 0 1 408,315 H72 A12,12 0 0 1 60,303 V277 A12,12 0 0 1 72,265 Z" />
    <text x="240" y="298" font-family="Arial Black" font-size="15" fill="#F39C12" text-anchor="middle">📈 收入高增</text>
    <text x="240" y="360" font-family="Arial Black" font-size="36" fill="#E67E22" text-anchor="middle">+225%</text>
    <text x="240" y="400" font-family="Arial" font-size="13" fill="#666" text-anchor="middle">MaaS 收入增长</text>
    <text x="240" y="435" font-family="Arial" font-size="12" fill="#999" text-anchor="middle">占比升至 22%</text>
    <text x="240" y="465" font-family="Arial" font-size="11" fill="#999" text-anchor="middle">平台化效应</text>
    <path fill="#FFFFFF" filter="url(#shadow)" d="M452,265 H788 A12,12 0 0 1 800,277 V483 A12,12 0 0 1 788,495 H452 A12,12 0 0 1 440,483 V277 A12,12 0 0 1 452,265 Z" />
    <path fill="#E8F6F3" d="M452,265 H788 A12,12 0 0 1 800,277 V303 A12,12 0 0 1 788,315 H452 A12,12 0 0 1 440,303 V277 A12,12 0 0 1 452,265 Z" />
    <text x="620" y="298" font-family="Arial Black" font-size="15" fill="#1ABC9C" text-anchor="middle">💎 高毛利拉动</text>
    <text x="620" y="360" font-family="Arial Black" font-size="32" fill="#27AE60" text-anchor="middle">65%~70%</text>
    <text x="620" y="400" font-family="Arial" font-size="13" fill="#666" text-anchor="middle">MaaS 毛利率</text>
    <text x="620" y="435" font-family="Arial" font-size="12" fill="#999" text-anchor="middle">拉动整体盈利改善</text>
    <text x="620" y="465" font-family="Arial" font-size="11" fill="#999" text-anchor="middle">高附加值服务</text>
    <path fill="#FFFFFF" filter="url(#shadow)" d="M832,265 H1208 A12,12 0 0 1 1220,277 V483 A12,12 0 0 1 1208,495 H832 A12,12 0 0 1 820,483 V277 A12,12 0 0 1 832,265 Z" />
    <path fill="#EBF5FB" d="M832,265 H1208 A12,12 0 0 1 1220,277 V303 A12,12 0 0 1 1208,315 H832 A12,12 0 0 1 820,303 V277 A12,12 0 0 1 832,265 Z" />
    <text x="1020" y="298" font-family="Arial Black" font-size="15" fill="#2932E1" text-anchor="middle">👥 客户粘性提升</text>
    <text x="1020" y="345" font-family="Arial" font-size="13" fill="#555" text-anchor="middle">客户 LTV <tspan fill="#27AE60" font-weight="bold" font-size="18">+60%</tspan> | 流失率 <tspan fill="#E74C3C" font-weight="bold" font-size="18">-15%</tspan></text>
    <text x="1020" y="395" font-family="Arial" font-size="13" fill="#666" text-anchor="middle">外部收入占比 90%+</text>
    <text x="1020" y="430" font-family="Arial" font-size="12" fill="#999" text-anchor="middle">平台化效应显著</text>
    <text x="1020" y="465" font-family="Arial" font-size="11" fill="#999" text-anchor="middle">生态锁定效应</text>
    <path fill="#F5F5F5" d="M68,525 H1212 A8,8 0 0 1 1220,533 V592 A8,8 0 0 1 1212,600 H68 A8,8 0 0 1 60,592 V533 A8,8 0 0 1 68,525 Z" />
    <text x="640" y="560" font-family="Arial" font-size="13" fill="#666" text-anchor="middle">千帆 MaaS 平台是百度智能云商业化成功的核心引擎，实现收入、毛利、客户粘性三重提升</text>
    <text x="640" y="585" font-family="Arial" font-size="11" fill="#999" text-anchor="middle">模型商店 | 行业定制 | 智能体工具链 | Token 消耗月增 50%+</text>
    <text x="60" y="680" font-family="Arial" font-size="12" fill="#999999">百度智能云 2025 年财报分析 | 11 / 14</text>
</svg>