<?xml version="1.0" encoding="UTF-8"?>
<svg xmlns="http://www.w3.org/2000/svg" viewBox="0 0 1280 720">
    <rect width="1280" height="720" fill="#F8F9FA" />
    <text x="60" y="70" font-family="Arial Black" font-size="28" fill="#333333">关键战略 · 文心大模型 4.0</text>
    <rect x="60" y="80" width="280" height="4" fill="#2932E1" />
    <path fill="#FFFFFF" filter="url(#shadow)" d="M72,120 H1208 A12,12 0 0 1 1220,132 V218 A12,12 0 0 1 1208,230 H72 A12,12 0 0 1 60,218 V132 A12,12 0 0 1 72,120 Z" />
    <path fill="#2932E1" d="M72,120 H1208 A12,12 0 0 1 1220,132 V163 A12,12 0 0 1 1208,175 H72 A12,12 0 0 1 60,163 V132 A12,12 0 0 1 72,120 Z" />
    <text x="110" y="158" font-family="Arial Black" font-size="18" fill="#FFFFFF">💡 核心动作</text>
    <text x="640" y="158" font-family="Arial" font-size="15" fill="#E0E0FF" text-anchor="middle">全模态、长文本、工具调用、智能体能力全面开放</text>
    <path fill="#FFFFFF" filter="url(#shadow)" d="M72,265 H408 A12,12 0 0 1 420,277 V483 A12,12 0 0 1 408,495 H72 A12,12 0 0 1 60,483 V277 A12,12 0 0 1 72,265 Z" />
    <path fill="#FEF9E7" d="M72,265 H408 A12,12 0 0 1 420,277 V303 A12,12 0 0 1 408,315 H72 A12,12 0 0 1 60,303 V277 A12,12 0 0 1 72,265 Z" />
    <text x="240" y="298" font-family="Arial Black" font-size="15" fill="#F39C12" text-anchor="middle">📈 收入带动</text>
    <text x="240" y="360" font-family="Arial Black" font-size="36" fill="#E67E22" text-anchor="middle">+200%</text>
    <text x="240" y="400" font-family="Arial" font-size="13" fill="#666" text-anchor="middle">MaaS/API 收入增长</text>
    <text x="240" y="435" font-family="Arial" font-size="12" fill="#999" text-anchor="middle">成为核心竞争力</text>
    <text x="240" y="465" font-family="Arial" font-size="11" fill="#999" text-anchor="middle">技术变现能力</text>
    <path fill="#FFFFFF" filter="url(#shadow)" d="M452,265 H788 A12,12 0 0 1 800,277 V483 A12,12 0 0 1 788,495 H452 A12,12 0 0 1 440,483 V277 A12,12 0 0 1 452,265 Z" />
    <path fill="#E8F6F3" d="M452,265 H788 A12,12 0 0 1 800,277 V303 A12,12 0 0 1 788,315 H452 A12,12 0 0 1 440,303 V277 A12,12 0 0 1 452,265 Z" />
    <text x="620" y="298" font-family="Arial Black" font-size="15" fill="#1ABC9C" text-anchor="middle">🔄 能力升级</text>
    <text x="620" y="340" font-family="Arial" font-size="13" fill="#555" text-anchor="middle">全模态理解</text>
    <text x="620" y="365" font-family="Arial" font-size="13" fill="#555" text-anchor="middle">长文本处理</text>
    <text x="620" y="390" font-family="Arial" font-size="13" fill="#555" text-anchor="middle">工具调用</text>
    <text x="620" y="415" font-family="Arial" font-size="13" fill="#555" text-anchor="middle">智能体编排</text>
    <text x="620" y="450" font-family="Arial" font-size="12" fill="#999" text-anchor="middle">企业级能力全面开放</text>
    <text x="620" y="475" font-family="Arial" font-size="11" fill="#999" text-anchor="middle">技术领先</text>
    <path fill="#FFFFFF" filter="url(#shadow)" d="M832,265 H1208 A12,12 0 0 1 1220,277 V483 A12,12 0 0 1 1208,495 H832 A12,12 0 0 1 820,483 V277 A12,12 0 0 1 832,265 Z" />
    <path fill="#EBF5FB" d="M832,265 H1208 A12,12 0 0 1 1220,277 V303 A12,12 0 0 1 1208,315 H832 A12,12 0 0 1 820,303 V277 A12,12 0 0 1 832,265 Z" />
    <text x="1020" y="298" font-family="Arial Black" font-size="15" fill="#2932E1" text-anchor="middle">🌐 生态协同</text>
    <text x="1020" y="350" font-family="Arial" font-size="14" fill="#555" text-anchor="middle">与搜索、网盘、文库协同</text>
    <text x="1020" y="395" font-family="Arial Black" font-size="22" fill="#27AE60" text-anchor="middle">C 端 + B 端 闭环形成</text>
    <text x="1020" y="435" font-family="Arial" font-size="13" fill="#666" text-anchor="middle">全场景覆盖</text>
    <text x="1020" y="465" font-family="Arial" font-size="11" fill="#999" text-anchor="middle">生态优势</text>
    <path fill="#F5F5F5" d="M68,525 H1212 A8,8 0 0 1 1220,533 V592 A8,8 0 0 1 1212,600 H68 A8,8 0 0 1 60,592 V533 A8,8 0 0 1 68,525 Z" />
    <text x="640" y="560" font-family="Arial" font-size="13" fill="#666" text-anchor="middle">文心大模型 4.0 是百度 AI 技术实力的集中体现，驱动 MaaS 收入增长，构建 C 端+B 端生态闭环</text>
    <text x="640" y="585" font-family="Arial" font-size="11" fill="#999" text-anchor="middle">全模态 | 长文本 | 工具调用 | 智能体 | 生态协同</text>
    <text x="60" y="680" font-family="Arial" font-size="12" fill="#999999">百度智能云 2025 年财报分析 | 12 / 14</text>
</svg>