<?xml version="1.0" encoding="UTF-8"?>
<svg xmlns="http://www.w3.org/2000/svg" viewBox="0 0 1280 720">
    <rect width="1280" height="720" fill="#F8F9FA"/>
    <text x="60" y="70" font-family="Arial Black" font-size="28" fill="#333333">分季度表现 · 季度趋势分析</text>
    <rect x="60" y="80" width="280" height="4" fill="#2932E1"/>
    <rect x="60" y="120" width="1160" height="150" rx="12" fill="#FFFFFF" filter="url(#shadow)"/>
    <rect x="60" y="120" width="1160" height="50" rx="12" fill="#FEF9E7"/>
    <text x="90" y="153" font-family="Arial Black" font-size="16" fill="#F39C12">1️⃣ 增速逐季抬升</text>
    <text x="90" y="195" font-family="Arial" font-size="14" fill="#555">Q1(28%) → Q2(31%) → Q3(32%) → Q4(41%)，AI 需求加速释放</text>
    <rect x="800" y="140" width="70" height="100" fill="#F7DC6F" rx="4"/>
    <text x="835" y="230" font-family="Arial" font-size="11" fill="#333" text-anchor="middle">28%</text>
    <text x="835" y="250" font-family="Arial" font-size="10" fill="#666" text-anchor="middle">Q1</text>
    <rect x="880" y="140" width="70" height="110" fill="#F5B041" rx="4"/>
    <text x="915" y="230" font-family="Arial" font-size="11" fill="#333" text-anchor="middle">31%</text>
    <text x="915" y="250" font-family="Arial" font-size="10" fill="#666" text-anchor="middle">Q2</text>
    <rect x="960" y="140" width="70" height="115" fill="#F39C12" rx="4"/>
    <text x="995" y="230" font-family="Arial" font-size="11" fill="#333" text-anchor="middle">32%</text>
    <text x="995" y="250" font-family="Arial" font-size="10" fill="#666" text-anchor="middle">Q3</text>
    <rect x="1040" y="140" width="70" height="135" fill="#E67E22" rx="4"/>
    <text x="1075" y="230" font-family="Arial" font-size="11" fill="#333" text-anchor="middle">41%</text>
    <text x="1075" y="250" font-family="Arial" font-size="10" fill="#666" text-anchor="middle">Q4</text>
    <rect x="60" y="295" width="1160" height="150" rx="12" fill="#FFFFFF" filter="url(#shadow)"/>
    <rect x="60" y="295" width="1160" height="50" rx="12" fill="#E8F6F3"/>
    <text x="90" y="328" font-family="Arial Black" font-size="16" fill="#1ABC9C">2️⃣ Q4 拐点</text>
    <text x="90" y="370" font-family="Arial" font-size="14" fill="#555">单季收入<tspan fill="#2932E1" font-weight="bold" font-size="16">88 亿</tspan>（占全年 29%），算力订阅<tspan fill="#E74C3C" font-weight="bold" font-size="16">+143%</tspan>增速，企业从试点 → 规模化采购</text>
    <rect x="60" y="470" width="1160" height="150" rx="12" fill="#FFFFFF" filter="url(#shadow)"/>
    <rect x="60" y="470" width="1160" height="50" rx="12" fill="#EBF5FB"/>
    <text x="90" y="503" font-family="Arial Black" font-size="16" fill="#2932E1">3️⃣ 结构优化</text>
    <text x="90" y="545" font-family="Arial" font-size="14" fill="#555">高毛利 MaaS/模型服务占比从 2024 年<tspan font-weight="bold" font-size="16">13%</tspan> → 2025 年<tspan font-weight="bold" font-size="16">22%</tspan>，拉动整体毛利率提升</text>
    <rect x="900" y="515" width="180" height="18" fill="#E8EAED" rx="9"/>
    <rect x="900" y="515" width="117" height="18" fill="#2932E1" rx="9"/>
    <text x="990" y="528" font-family="Arial" font-size="10" fill="#FFFFFF" text-anchor="middle">2024: 13%</text>
    <rect x="900" y="545" width="180" height="18" fill="#E8EAED" rx="9"/>
    <rect x="900" y="545" width="162" height="18" fill="#5C67FF" rx="9"/>
    <text x="990" y="558" font-family="Arial" font-size="10" fill="#FFFFFF" text-anchor="middle">2025: 22%</text>
    <text x="60" y="680" font-family="Arial" font-size="12" fill="#999999">百度智能云 2025 年财报分析 | 6 / 14</text>
</svg>