<?xml version="1.0" encoding="UTF-8"?>
<svg xmlns="http://www.w3.org/2000/svg" viewBox="0 0 1280 720">
    <rect width="1280" height="720" fill="#F8F9FA"/>
    <text x="60" y="70" font-family="Arial Black" font-size="28" fill="#333333">客户与市场地位</text>
    <rect x="60" y="80" width="240" height="4" fill="#2932E1"/>
    <rect x="60" y="120" width="560" height="400" fill="#FFFFFF" rx="12" filter="url(#shadow)"/>
    <text x="340" y="160" font-family="Arial" font-size="16" fill="#333" text-anchor="middle" font-weight="bold">客户结构</text>
    <circle cx="240" cy="320" r="110" fill="#FFFFFF" stroke="#E8EAED" stroke-width="2"/>
    <path d="M 240 210 A 110 110 0 0 1 340 275 L 240 320 Z" fill="#2932E1"/>
    <path d="M 340 275 A 110 110 0 0 1 315 390 L 240 320 Z" fill="#5C67FF"/>
    <path d="M 315 390 A 110 110 0 0 1 165 390 L 240 320 Z" fill="#3498DB"/>
    <path d="M 165 390 A 110 110 0 0 1 135 275 L 240 320 Z" fill="#2ECC71"/>
    <path d="M 135 275 A 110 110 0 0 1 240 210 L 240 320 Z" fill="#F39C12"/>
    <text x="420" y="230" font-family="Arial" font-size="12" fill="#555">■ 互联网 35%</text>
    <text x="420" y="255" font-family="Arial" font-size="12" fill="#555">■ 金融 22%</text>
    <text x="420" y="280" font-family="Arial" font-size="12" fill="#555">■ 制造 18%</text>
    <text x="420" y="305" font-family="Arial" font-size="12" fill="#555">■ 政企 15%</text>
    <text x="420" y="330" font-family="Arial" font-size="12" fill="#555">■ 其他 10%</text>
    <rect x="660" y="120" width="560" height="190" rx="12" fill="#FFFFFF" filter="url(#shadow)"/>
    <rect x="660" y="120" width="560" height="50" rx="12" fill="#2932E1"/>
    <text x="940" y="153" font-family="Arial Black" font-size="16" fill="#FFFFFF" text-anchor="middle">🏆 市场份额</text>
    <text x="940" y="210" font-family="Arial" font-size="14" fill="#555" text-anchor="middle">中国 AI 云全栈服务</text>
    <text x="940" y="255" font-family="Arial Black" font-size="52" fill="#2932E1" text-anchor="middle">40.2%</text>
    <text x="940" y="290" font-family="Arial" font-size="13" fill="#27AE60" text-anchor="middle" font-weight="bold">行业第一 · 领跑市场</text>
    <rect x="660" y="330" width="560" height="190" rx="12" fill="#FFFFFF" filter="url(#shadow)"/>
    <rect x="660" y="330" width="560" height="50" rx="12" fill="#FEF9E7"/>
    <text x="940" y="363" font-family="Arial Black" font-size="16" fill="#F39C12" text-anchor="middle">📋 中标表现</text>
    <text x="940" y="420" font-family="Arial" font-size="14" fill="#555" text-anchor="middle">2025 年大模型项目</text>
    <text x="940" y="465" font-family="Arial Black" font-size="32" fill="#E67E22" text-anchor="middle">109 个 / 9 亿元</text>
    <text x="940" y="500" font-family="Arial" font-size="13" fill="#27AE60" text-anchor="middle" font-weight="bold">连续两年 项目数/金额双第一</text>
    <text x="60" y="680" font-family="Arial" font-size="12" fill="#999999">百度智能云 2025 年财报分析 | 9 / 14</text>
</svg>