<?xml version="1.0" encoding="UTF-8"?>
<svg xmlns="http://www.w3.org/2000/svg" viewBox="0 0 1280 720">
    <rect width="1280" height="720" fill="#F8F9FA"/>
    <text x="60" y="70" font-family="Arial Black" font-size="28" fill="#333333">关键战略 · 文心大模型 4.0</text>
    <rect x="60" y="80" width="280" height="4" fill="#2932E1"/>
    <rect x="60" y="120" width="1160" height="110" rx="12" fill="#FFFFFF" filter="url(#shadow)"/>
    <rect x="60" y="120" width="1160" height="55" rx="12" fill="#2932E1"/>
    <text x="110" y="158" font-family="Arial Black" font-size="18" fill="#FFFFFF">💡 核心动作</text>
    <text x="640" y="158" font-family="Arial" font-size="15" fill="#E0E0FF" text-anchor="middle">全模态、长文本、工具调用、智能体能力全面开放</text>
    <rect x="60" y="265" width="360" height="230" rx="12" fill="#FFFFFF" filter="url(#shadow)"/>
    <rect x="60" y="265" width="360" height="50" rx="12" fill="#FEF9E7"/>
    <text x="240" y="298" font-family="Arial Black" font-size="15" fill="#F39C12" text-anchor="middle">📈 收入带动</text>
    <text x="240" y="360" font-family="Arial Black" font-size="36" fill="#E67E22" text-anchor="middle">+200%</text>
    <text x="240" y="400" font-family="Arial" font-size="13" fill="#666" text-anchor="middle">MaaS/API 收入增长</text>
    <text x="240" y="435" font-family="Arial" font-size="12" fill="#999" text-anchor="middle">成为核心竞争力</text>
    <text x="240" y="465" font-family="Arial" font-size="11" fill="#999" text-anchor="middle">技术变现能力</text>
    <rect x="440" y="265" width="360" height="230" rx="12" fill="#FFFFFF" filter="url(#shadow)"/>
    <rect x="440" y="265" width="360" height="50" rx="12" fill="#E8F6F3"/>
    <text x="620" y="298" font-family="Arial Black" font-size="15" fill="#1ABC9C" text-anchor="middle">🔄 能力升级</text>
    <text x="620" y="340" font-family="Arial" font-size="13" fill="#555" text-anchor="middle">全模态理解</text>
    <text x="620" y="365" font-family="Arial" font-size="13" fill="#555" text-anchor="middle">长文本处理</text>
    <text x="620" y="390" font-family="Arial" font-size="13" fill="#555" text-anchor="middle">工具调用</text>
    <text x="620" y="415" font-family="Arial" font-size="13" fill="#555" text-anchor="middle">智能体编排</text>
    <text x="620" y="450" font-family="Arial" font-size="12" fill="#999" text-anchor="middle">企业级能力全面开放</text>
    <text x="620" y="475" font-family="Arial" font-size="11" fill="#999" text-anchor="middle">技术领先</text>
    <rect x="820" y="265" width="400" height="230" rx="12" fill="#FFFFFF" filter="url(#shadow)"/>
    <rect x="820" y="265" width="400" height="50" rx="12" fill="#EBF5FB"/>
    <text x="1020" y="298" font-family="Arial Black" font-size="15" fill="#2932E1" text-anchor="middle">🌐 生态协同</text>
    <text x="1020" y="350" font-family="Arial" font-size="14" fill="#555" text-anchor="middle">与搜索、网盘、文库协同</text>
    <text x="1020" y="395" font-family="Arial Black" font-size="22" fill="#27AE60" text-anchor="middle">C 端 + B 端 闭环形成</text>
    <text x="1020" y="435" font-family="Arial" font-size="13" fill="#666" text-anchor="middle">全场景覆盖</text>
    <text x="1020" y="465" font-family="Arial" font-size="11" fill="#999" text-anchor="middle">生态优势</text>
    <rect x="60" y="525" width="1160" height="75" fill="#F5F5F5" rx="8"/>
    <text x="640" y="560" font-family="Arial" font-size="13" fill="#666" text-anchor="middle">文心大模型 4.0 是百度 AI 技术实力的集中体现，驱动 MaaS 收入增长，构建 C 端+B 端生态闭环</text>
    <text x="640" y="585" font-family="Arial" font-size="11" fill="#999" text-anchor="middle">全模态 | 长文本 | 工具调用 | 智能体 | 生态协同</text>
    <text x="60" y="680" font-family="Arial" font-size="12" fill="#999999">百度智能云 2025 年财报分析 | 12 / 14</text>
</svg>