<?xml version="1.0" encoding="UTF-8"?>
<svg xmlns="http://www.w3.org/2000/svg" viewBox="0 0 1280 720">
  <defs>
    <linearGradient id="headerGradient" x1="0%" y1="0%" x2="100%" y2="0%">
      <stop offset="0%" stop-color="#CF002E" />
      <stop offset="100%" stop-color="#8B0020" />
    </linearGradient>
  </defs>
  
  
  <rect width="1280" height="720" fill="#FFFFFF" />
  
  
  <rect x="0" y="0" width="1280" height="80" fill="#F8F9FA" />
  <rect x="60" y="75" width="1160" height="5" fill="url(#headerGradient)" />
  
  
  <text x="60" y="50" fill="#333333" font-family="Arial, Microsoft YaHei, sans-serif" font-size="35" font-weight="bold">
    大模型动态：Kimi K2.5 &amp; 阿里 Qwen3.5
  </text>
  
  
  <path fill="#FFFFFF" stroke="#0066CC" stroke-width="2" d="M68,120 H612 A8,8 0 0 1 620,128 V592 A8,8 0 0 1 612,600 H68 A8,8 0 0 1 60,592 V128 A8,8 0 0 1 68,120 Z" />
  <path fill="#0066CC" d="M68,120 H612 A8,8 0 0 1 620,128 V162 A8,8 0 0 1 612,170 H68 A8,8 0 0 1 60,162 V128 A8,8 0 0 1 68,120 Z" />
  <text x="90" y="155" fill="#FFFFFF" font-family="Arial, Microsoft YaHei, sans-serif" font-size="24" font-weight="bold">
    Kimi K2.5
  </text>
  
  <text x="90" y="210" fill="#333333" font-family="Arial, Microsoft YaHei, sans-serif" font-size="20" font-weight="bold">
    核心成就
  </text>
  <path fill="#0066CC" d="M93,225 H103 A3,3 0 0 1 106,228 V238 A3,3 0 0 1 103,241 H93 A3,3 0 0 1 90,238 V228 A3,3 0 0 1 93,225 Z" />
  <text x="115" y="240" fill="#666666" font-family="Arial, Microsoft YaHei, sans-serif" font-size="18">
    发布 24 小时登顶 LMarena 开源模型首位
  </text>
  <path fill="#0066CC" d="M93,255 H103 A3,3 0 0 1 106,258 V268 A3,3 0 0 1 103,271 H93 A3,3 0 0 1 90,268 V258 A3,3 0 0 1 93,255 Z" />
  <text x="115" y="270" fill="#666666" font-family="Arial, Microsoft YaHei, sans-serif" font-size="18">
    Artificial Analysis 榜单位列第 5（开源第 1）
  </text>
  
  <text x="90" y="315" fill="#333333" font-family="Arial, Microsoft YaHei, sans-serif" font-size="20" font-weight="bold">
    集群能力
  </text>
  <path fill="#0066CC" d="M93,330 H103 A3,3 0 0 1 106,333 V343 A3,3 0 0 1 103,346 H93 A3,3 0 0 1 90,343 V333 A3,3 0 0 1 93,330 Z" />
  <text x="115" y="345" fill="#666666" font-family="Arial, Microsoft YaHei, sans-serif" font-size="18">
    自主调度 100 个专业背景分身
  </text>
  <path fill="#0066CC" d="M93,360 H103 A3,3 0 0 1 106,363 V373 A3,3 0 0 1 103,376 H93 A3,3 0 0 1 90,373 V363 A3,3 0 0 1 93,360 Z" />
  <text x="115" y="375" fill="#666666" font-family="Arial, Microsoft YaHei, sans-serif" font-size="18">
    并行处理高达 1500 个步骤
  </text>
  <path fill="#0066CC" d="M93,390 H103 A3,3 0 0 1 106,393 V403 A3,3 0 0 1 103,406 H93 A3,3 0 0 1 90,403 V393 A3,3 0 0 1 93,390 Z" />
  <text x="115" y="405" fill="#666666" font-family="Arial, Microsoft YaHei, sans-serif" font-size="18">
    复杂任务效率提升 10 倍+
  </text>
  
  <path fill="#F0F7FF" stroke="#0066CC" stroke-width="1" d="M96,440 H584 A6,6 0 0 1 590,446 V494 A6,6 0 0 1 584,500 H96 A6,6 0 0 1 90,494 V446 A6,6 0 0 1 96,440 Z" />
  <text x="110" y="470" fill="#0066CC" font-family="Arial, Microsoft YaHei, sans-serif" font-size="16" font-weight="bold">
    🏆 Kilo Code 宣布 Kimi K2.5 成为默认模型，首周免费
  </text>
  
  
  <path fill="#FFFFFF" stroke="#CF002E" stroke-width="2" d="M668,120 H1212 A8,8 0 0 1 1220,128 V592 A8,8 0 0 1 1212,600 H668 A8,8 0 0 1 660,592 V128 A8,8 0 0 1 668,120 Z" />
  <path fill="#CF002E" d="M668,120 H1212 A8,8 0 0 1 1220,128 V162 A8,8 0 0 1 1212,170 H668 A8,8 0 0 1 660,162 V128 A8,8 0 0 1 668,120 Z" />
  <text x="690" y="155" fill="#FFFFFF" font-family="Arial, Microsoft YaHei, sans-serif" font-size="24" font-weight="bold">
    阿里 Qwen3.5 系列
  </text>
  
  <text x="690" y="210" fill="#333333" font-family="Arial, Microsoft YaHei, sans-serif" font-size="20" font-weight="bold">
    架构创新
  </text>
  <path fill="#CF002E" d="M693,225 H703 A3,3 0 0 1 706,228 V238 A3,3 0 0 1 703,241 H693 A3,3 0 0 1 690,238 V228 A3,3 0 0 1 693,225 Z" />
  <text x="715" y="240" fill="#666666" font-family="Arial, Microsoft YaHei, sans-serif" font-size="18">
    Qwen3.5-397B-A17B 混合专家架构 (MoE)
  </text>
  <path fill="#CF002E" d="M693,255 H703 A3,3 0 0 1 706,258 V268 A3,3 0 0 1 703,271 H693 A3,3 0 0 1 690,268 V258 A3,3 0 0 1 693,255 Z" />
  <text x="715" y="270" fill="#666666" font-family="Arial, Microsoft YaHei, sans-serif" font-size="18">
    总参数 3970 亿，激活仅 170 亿
  </text>
  <path fill="#CF002E" d="M693,285 H703 A3,3 0 0 1 706,288 V298 A3,3 0 0 1 703,301 H693 A3,3 0 0 1 690,298 V288 A3,3 0 0 1 693,285 Z" />
  <text x="715" y="300" fill="#666666" font-family="Arial, Microsoft YaHei, sans-serif" font-size="18">
    以小胜大，推理效率大幅提升
  </text>
  
  <text x="690" y="350" fill="#333333" font-family="Arial, Microsoft YaHei, sans-serif" font-size="20" font-weight="bold">
    多模态能力
  </text>
  <path fill="#CF002E" d="M693,365 H703 A3,3 0 0 1 706,368 V378 A3,3 0 0 1 703,381 H693 A3,3 0 0 1 690,378 V368 A3,3 0 0 1 693,365 Z" />
  <text x="715" y="380" fill="#666666" font-family="Arial, Microsoft YaHei, sans-serif" font-size="18">
    支持文本、图像和视频输入
  </text>
  <path fill="#CF002E" d="M693,395 H703 A3,3 0 0 1 706,398 V408 A3,3 0 0 1 703,411 H693 A3,3 0 0 1 690,408 V398 A3,3 0 0 1 693,395 Z" />
  <text x="715" y="410" fill="#666666" font-family="Arial, Microsoft YaHei, sans-serif" font-size="18">
    阿里云百炼推出 qwen3.5-plus/flash
  </text>
  
  
  <path fill="#FFF5F5" stroke="#CF002E" stroke-width="1" d="M696,440 H1184 A6,6 0 0 1 1190,446 V574 A6,6 0 0 1 1184,580 H696 A6,6 0 0 1 690,574 V446 A6,6 0 0 1 696,440 Z" />
  <text x="710" y="470" fill="#CF002E" font-family="Arial, Microsoft YaHei, sans-serif" font-size="16" font-weight="bold">
    混合专家架构 (MoE) 示意图
  </text>
  <path fill="#CF002E" fill-opacity="0.2" stroke="#CF002E" stroke-width="2" d="M714,485 H806 A4,4 0 0 1 810,489 V541 A4,4 0 0 1 806,545 H714 A4,4 0 0 1 710,541 V489 A4,4 0 0 1 714,485 Z" />
  <text x="760" y="520" text-anchor="middle" fill="#333333" font-family="Arial, Microsoft YaHei, sans-serif" font-size="14">总参数</text>
  <text x="760" y="540" text-anchor="middle" fill="#CF002E" font-family="Arial, Microsoft YaHei, sans-serif" font-size="16" font-weight="bold">3970 亿</text>
  <text x="840" y="520" fill="#666666" font-family="Arial, Microsoft YaHei, sans-serif" font-size="24">→</text>
  <path fill="#FFFFFF" stroke="#CF002E" stroke-width="2" d="M874,485 H966 A4,4 0 0 1 970,489 V541 A4,4 0 0 1 966,545 H874 A4,4 0 0 1 870,541 V489 A4,4 0 0 1 874,485 Z" />
  <text x="920" y="520" text-anchor="middle" fill="#333333" font-family="Arial, Microsoft YaHei, sans-serif" font-size="14">激活参数</text>
  <text x="920" y="540" text-anchor="middle" fill="#CF002E" font-family="Arial, Microsoft YaHei, sans-serif" font-size="16" font-weight="bold">170 亿</text>
  <text x="1020" y="520" fill="#666666" font-family="Arial, Microsoft YaHei, sans-serif" font-size="14">激活率≈4.3%</text>
  
  
  <text x="1220" y="700" text-anchor="end" fill="#999999" font-family="Arial, Microsoft YaHei, sans-serif" font-size="13">
    2026-04-10 | 04
  </text>
</svg>