<?xml version="1.0" encoding="UTF-8"?>
<svg xmlns="http://www.w3.org/2000/svg" viewBox="0 0 1280 720">
  <defs>
    <linearGradient id="headerGradient" x1="0%" y1="0%" x2="100%" y2="0%">
      <stop offset="0%" stop-color="#CF002E" />
      <stop offset="100%" stop-color="#8B0020" />
    </linearGradient>
  </defs>
  
  
  <rect width="1280" height="720" fill="#FFFFFF" />
  
  
  <rect x="0" y="0" width="1280" height="80" fill="#F8F9FA" />
  <rect x="60" y="75" width="1160" height="5" fill="url(#headerGradient)" />
  
  
  <text x="60" y="50" fill="#333333" font-family="Arial, Microsoft YaHei, sans-serif" font-size="35" font-weight="bold">
    AI 政策与监管
  </text>
  
  
  <path fill="#F8F9FA" d="M68,120 H1212 A8,8 0 0 1 1220,128 V392 A8,8 0 0 1 1212,400 H68 A8,8 0 0 1 60,392 V128 A8,8 0 0 1 68,120 Z" />
  
  
  <text x="640" y="165" text-anchor="middle" fill="#333333" font-family="Arial, Microsoft YaHei, sans-serif" font-size="24" font-weight="bold">
    欧盟 AI 法案时间线
  </text>
  
  
  <line x1="120" y1="220" x2="1160" y2="220" stroke="#CF002E" stroke-width="3" />
  
  
  <circle cx="320" cy="220" r="12" fill="#CF002E" />
  <path fill="#FFFFFF" stroke="#CF002E" stroke-width="2" d="M276,250 H364 A6,6 0 0 1 370,256 V324 A6,6 0 0 1 364,330 H276 A6,6 0 0 1 270,324 V256 A6,6 0 0 1 276,250 Z" />
  <text x="320" y="275" text-anchor="middle" fill="#333333" font-family="Arial, Microsoft YaHei, sans-serif" font-size="16" font-weight="bold">2024.08.01</text>
  <text x="320" y="300" text-anchor="middle" fill="#666666" font-family="Arial, Microsoft YaHei, sans-serif" font-size="14">正式生效</text>
  <polygon points="320,250 315,260 325,260" fill="#CF002E" />
  
  
  <circle cx="960" cy="220" r="12" fill="#CF002E" />
  <path fill="#FFFFFF" stroke="#CF002E" stroke-width="2" d="M916,250 H1004 A6,6 0 0 1 1010,256 V324 A6,6 0 0 1 1004,330 H916 A6,6 0 0 1 910,324 V256 A6,6 0 0 1 916,250 Z" />
  <text x="960" y="275" text-anchor="middle" fill="#333333" font-family="Arial, Microsoft YaHei, sans-serif" font-size="16" font-weight="bold">2026.08.02</text>
  <text x="960" y="300" text-anchor="middle" fill="#666666" font-family="Arial, Microsoft YaHei, sans-serif" font-size="14">大部分条款适用</text>
  <polygon points="960,250 955,260 965,260" fill="#CF002E" />
  
  
  <path fill="#CF002E" d="M624,190 H656 A4,4 0 0 1 660,194 V246 A4,4 0 0 1 656,250 H624 A4,4 0 0 1 620,246 V194 A4,4 0 0 1 624,190 Z" />
  <text x="640" y="230" text-anchor="middle" fill="#FFFFFF" font-family="Arial, Microsoft YaHei, sans-serif" font-size="12" font-weight="bold">当前</text>
  <polygon points="640,250 635,260 645,260" fill="#CF002E" />
  
  
  <text x="60" y="450" fill="#333333" font-family="Arial, Microsoft YaHei, sans-serif" font-size="22" font-weight="bold">
    监管重点
  </text>
  
  <path fill="#FFF5F5" stroke="#CF002E" stroke-width="1" d="M68,475 H592 A8,8 0 0 1 600,483 V567 A8,8 0 0 1 592,575 H68 A8,8 0 0 1 60,567 V483 A8,8 0 0 1 68,475 Z" />
  <path fill="#CF002E" d="M63,475 H63 A3,8 0 0 1 66,483 V567 A3,8 0 0 1 63,575 H63 A3,8 0 0 1 60,567 V483 A3,8 0 0 1 63,475 Z" />
  <text x="90" y="510" fill="#333333" font-family="Arial, Microsoft YaHei, sans-serif" font-size="18" font-weight="bold">
    高风险 AI 应用监管
  </text>
  <text x="90" y="540" fill="#666666" font-family="Arial, Microsoft YaHei, sans-serif" font-size="16">
    鉴于"某些应用人工智能的方式可能引发不可接受的风险"
  </text>
  <text x="90" y="565" fill="#666666" font-family="Arial, Microsoft YaHei, sans-serif" font-size="16">
    欧盟加强对高风险 AI 应用的监管
  </text>
  
  <path fill="#F8F9FA" stroke="#E5E5E5" stroke-width="1" d="M688,475 H1212 A8,8 0 0 1 1220,483 V567 A8,8 0 0 1 1212,575 H688 A8,8 0 0 1 680,567 V483 A8,8 0 0 1 688,475 Z" />
  <path fill="#0066CC" d="M683,475 H683 A3,8 0 0 1 686,483 V567 A3,8 0 0 1 683,575 H683 A3,8 0 0 1 680,567 V483 A3,8 0 0 1 683,475 Z" />
  <text x="710" y="510" fill="#333333" font-family="Arial, Microsoft YaHei, sans-serif" font-size="18" font-weight="bold">
    全球首部综合性立法
  </text>
  <text x="710" y="540" fill="#666666" font-family="Arial, Microsoft YaHei, sans-serif" font-size="16">
    作为全球首部全面规范人工智能技术的综合性立法
  </text>
  <text x="710" y="565" fill="#666666" font-family="Arial, Microsoft YaHei, sans-serif" font-size="16">
    为各国 AI 监管提供参照
  </text>
  
  
  <path fill="#F0F7FF" stroke="#0066CC" stroke-width="1" d="M66,600 H1214 A6,6 0 0 1 1220,606 V654 A6,6 0 0 1 1214,660 H66 A6,6 0 0 1 60,654 V606 A6,6 0 0 1 66,600 Z" />
  <text x="90" y="635" fill="#0066CC" font-family="Arial, Microsoft YaHei, sans-serif" font-size="16" font-weight="bold">
    📋 补充：欧盟发布《通用人工智能行为准则》，补充 AI 法案框架
  </text>
  
  
  <text x="1220" y="700" text-anchor="end" fill="#999999" font-family="Arial, Microsoft YaHei, sans-serif" font-size="13">
    2026-04-10 | 07
  </text>
</svg>