<svg xmlns="http://www.w3.org/2000/svg" viewBox="0 0 1280 720">
  
  
  
  <rect width="1280" height="720" fill="#FFFFFF" />
  
  
  <rect y="0" width="1280" height="8" fill="#005587" />
  
  
  <rect x="0" y="0" width="8" height="720" fill="#005587" />
  
  
  <text font-size="56" font-weight="bold" fill="#005587" font-family="Arial" x="80" y="200">AI 周度洞察报告</text><text font-size="32" fill="#5D6D7E" font-family="Arial" x="80" y="280">2026年4月19日 | 第16周</text><rect x="80" y="320" width="200" height="4" fill="#E74C3C" />
  
  
  <g font-family="Arial" font-size="18" fill="#5D6D7E">
    <path fill="#F0F4F8" d="M84,360 H216 A4,4 0 0 1 220,364 V392 A4,4 0 0 1 216,396 H84 A4,4 0 0 1 80,392 V364 A4,4 0 0 1 84,360 Z" />
    <text x="150" y="385" text-anchor="middle" fill="#005587" font-weight="bold">世界模型</text>
    
    <path fill="#F0F4F8" d="M244,360 H376 A4,4 0 0 1 380,364 V392 A4,4 0 0 1 376,396 H244 A4,4 0 0 1 240,392 V364 A4,4 0 0 1 244,360 Z" />
    <text x="310" y="385" text-anchor="middle" fill="#005587" font-weight="bold">融资狂潮</text>
    
    <path fill="#F0F4F8" d="M404,360 H536 A4,4 0 0 1 540,364 V392 A4,4 0 0 1 536,396 H404 A4,4 0 0 1 400,392 V364 A4,4 0 0 1 404,360 Z" />
    <text x="470" y="385" text-anchor="middle" fill="#005587" font-weight="bold">IPO竞速</text>
  </g>
  
  
  <path fill="#FFF9E6" stroke="#E74C3C" stroke-width="2" d="M88,440 H672 A8,8 0 0 1 680,448 V532 A8,8 0 0 1 672,540 H88 A8,8 0 0 1 80,532 V448 A8,8 0 0 1 88,440 Z" />
  <text font-size="20" font-weight="bold" fill="#E74C3C" font-family="Arial" x="100" y="480">本周最大洞察</text><text font-size="16" fill="#5D6D7E" font-family="Arial" x="100" y="510">2026 Q1 AI 融资达 3000 亿美元，占全球 VC 80%</text><text x="80" y="660" font-family="Arial" font-size="14" fill="#7F8C8D">
    <tspan>编辑：零壹情报 | 数据来源：Tavily 搜索</tspan>
  </text>
  
  
  <text x="1200" y="680" text-anchor="end" font-family="Arial" font-size="14" fill="#7F8C8D">
    <tspan>1/15</tspan>
  </text>
  
  
  <g opacity="0.1">
    <circle cx="1100" cy="180" r="60" fill="#005587" />
    <rect x="1050" y="250" width="80" height="80" fill="#005587" />
    <polygon points="1150,340 1190,410 1110,410" fill="#005587" />
  </g>
</svg>