<?xml version="1.0" encoding="UTF-8"?>
<svg xmlns="http://www.w3.org/2000/svg" viewBox="0 0 1280 720">
  
  
  <rect width="1280" height="720" fill="#FFFFFF" />
  
  
  <rect y="0" width="1280" height="8" fill="#005587" />
  <rect x="0" y="0" width="8" height="720" fill="#005587" />
  
  
  <text x="80" y="80" font-family="Arial" font-size="36" font-weight="bold" fill="#005587">
    <tspan>目录</tspan>
  </text>
  
  
  <rect x="80" y="100" width="100" height="4" fill="#E74C3C" />
  
  
  <g font-family="Arial" fill="#2C3E50">
    
    <path fill="#005587" d="M84,140 H116 A4,4 0 0 1 120,144 V176 A4,4 0 0 1 116,180 H84 A4,4 0 0 1 80,176 V144 A4,4 0 0 1 84,140 Z" />
    <text x="100" y="170" text-anchor="middle" font-size="20" fill="#FFFFFF" font-weight="bold">01</text>
    <text x="140" y="170" font-size="24">核心摘要</text>
    <text x="1100" y="170" font-size="16" fill="#7F8C8D">2 页</text>
    
    
    <path fill="#005587" d="M84,210 H116 A4,4 0 0 1 120,214 V246 A4,4 0 0 1 116,250 H84 A4,4 0 0 1 80,246 V214 A4,4 0 0 1 84,210 Z" />
    <text x="100" y="240" text-anchor="middle" font-size="20" fill="#FFFFFF" font-weight="bold">02</text>
    <text x="140" y="240" font-size="24">本周核心动态</text>
    <text x="1100" y="240" font-size="16" fill="#7F8C8D">6 页</text>
    
    
    <path fill="#005587" d="M84,280 H116 A4,4 0 0 1 120,284 V316 A4,4 0 0 1 116,320 H84 A4,4 0 0 1 80,316 V284 A4,4 0 0 1 84,280 Z" />
    <text x="100" y="310" text-anchor="middle" font-size="20" fill="#FFFFFF" font-weight="bold">03</text>
    <text x="140" y="310" font-size="24">趋势洞察</text>
    <text x="1100" y="310" font-size="16" fill="#7F8C8D">2 页</text>
    
    
    <path fill="#005587" d="M84,350 H116 A4,4 0 0 1 120,354 V386 A4,4 0 0 1 116,390 H84 A4,4 0 0 1 80,386 V354 A4,4 0 0 1 84,350 Z" />
    <text x="100" y="380" text-anchor="middle" font-size="20" fill="#FFFFFF" font-weight="bold">04</text>
    <text x="140" y="380" font-size="24">机会矩阵</text>
    <text x="1100" y="380" font-size="16" fill="#7F8C8D">1 页</text>
    
    
    <path fill="#005587" d="M84,420 H116 A4,4 0 0 1 120,424 V456 A4,4 0 0 1 116,460 H84 A4,4 0 0 1 80,456 V424 A4,4 0 0 1 84,420 Z" />
    <text x="100" y="450" text-anchor="middle" font-size="20" fill="#FFFFFF" font-weight="bold">05</text>
    <text x="140" y="450" font-size="24">行动建议</text>
    <text x="1100" y="450" font-size="16" fill="#7F8C8D">1 页</text>
  </g>
  
  
  <path fill="#F8F9FA" stroke="#DEE2E6" stroke-width="1" d="M88,520 H1192 A8,8 0 0 1 1200,528 V612 A8,8 0 0 1 1192,620 H88 A8,8 0 0 1 80,612 V528 A8,8 0 0 1 88,520 Z" />
  <text x="100" y="550" font-family="Arial" font-size="16" fill="#5D6D7E" font-weight="bold">
    <tspan>本周覆盖维度</tspan>
  </text>
  <g font-family="Arial" font-size="14" fill="#5D6D7E">
    <text x="100" y="590">🧠 大模型动态</text>
    <text x="280" y="590">🇨🇳 中国厂商</text>
    <text x="440" y="590">🇺🇸 美国厂商</text>
    <text x="600" y="590">📜 政策监管</text>
    <text x="760" y="590">💰 投融资</text>
    <text x="900" y="590">🔬 技术突破</text>
  </g>
  
  
  <text x="1200" y="680" text-anchor="end" font-family="Arial" font-size="14" fill="#7F8C8D">
    <tspan>2/15</tspan>
  </text>
</svg>