<?xml version="1.0" encoding="UTF-8"?>
<svg xmlns="http://www.w3.org/2000/svg" viewBox="0 0 1280 720">
  
  
  <rect width="1280" height="720" fill="#FFFFFF" />
  <rect y="0" width="1280" height="8" fill="#005587" />
  <rect x="0" y="0" width="8" height="720" fill="#005587" />
  
  
  <text x="80" y="60" font-family="Arial" font-size="32" font-weight="bold" fill="#005587">
    <tspan>大模型动态</tspan>
  </text>
  <rect x="80" y="75" width="60" height="4" fill="#E74C3C" />
  
  
  <path fill="#F8F9FA" stroke="#DEE2E6" stroke-width="1" d="M88,100 H612 A8,8 0 0 1 620,108 V292 A8,8 0 0 1 612,300 H88 A8,8 0 0 1 80,292 V108 A8,8 0 0 1 88,100 Z" />
  <rect x="80" y="100" width="8" height="200" fill="#E74C3C" />
  <text x="100" y="130" font-family="Arial" font-size="18" fill="#E74C3C" font-weight="bold">
    <tspan>智谱 GLM-5.1 开源</tspan>
  </text>
  <g font-family="Arial" font-size="14" fill="#5D6D7E">
    <text x="100" y="160">• 全球首个 8 小时持续工作能力开源模型</text>
    <text x="100" y="185">• SWE-bench Pro 超越 Claude Opus 4.6</text>
    <text x="100" y="210">• Coding 场景价格接近 Claude Sonnet 4.6</text>
    <text x="100" y="235">• OpenRouter 监测显示全线提价 10%</text>
  </g>
  <path fill="#28A745" d="M104,260 H176 A4,4 0 0 1 180,264 V284 A4,4 0 0 1 176,288 H104 A4,4 0 0 1 100,284 V264 A4,4 0 0 1 104,260 Z" />
  <text x="140" y="280" text-anchor="middle" font-family="Arial" font-size="12" fill="#FFFFFF">国产领先</text>
  
  
  <path fill="#F8F9FA" stroke="#DEE2E6" stroke-width="1" d="M668,100 H1192 A8,8 0 0 1 1200,108 V292 A8,8 0 0 1 1192,300 H668 A8,8 0 0 1 660,292 V108 A8,8 0 0 1 668,100 Z" />
  <rect x="660" y="100" width="8" height="200" fill="#005587" />
  <text x="680" y="130" font-family="Arial" font-size="18" fill="#005587" font-weight="bold">
    <tspan>微软发布 3 款自研基础模型</tspan>
  </text>
  <g font-family="Arial" font-size="14" fill="#5D6D7E">
    <text x="680" y="160">• MAI-Transcribe-1（语音转写）</text>
    <text x="680" y="185">• MAI-Voice-1（语音生成）$22/百万字符</text>
    <text x="680" y="210">• MAI-Image-2（图像生成）$5/百万Token</text>
    <text x="680" y="235">• Microsoft AI CEO 表示要实现"AI 自给自足"</text>
  </g>
  <path fill="#E74C3C" d="M684,260 H756 A4,4 0 0 1 760,264 V284 A4,4 0 0 1 756,288 H684 A4,4 0 0 1 680,284 V264 A4,4 0 0 1 684,260 Z" />
  <text x="720" y="280" text-anchor="middle" font-family="Arial" font-size="12" fill="#FFFFFF">与 OpenAI 竞争</text>
  
  
  <path fill="#E8F4F8" stroke="#005587" stroke-width="2" d="M88,320 H1192 A8,8 0 0 1 1200,328 V492 A8,8 0 0 1 1192,500 H88 A8,8 0 0 1 80,492 V328 A8,8 0 0 1 88,320 Z" />
  <text x="100" y="350" font-family="Arial" font-size="18" fill="#005587" font-weight="bold">
    <tspan>OpenAI 发布 GPT-5.4，Anthropic 发布 Claude Opus 4.7</tspan>
  </text>
  <g font-family="Arial" font-size="14" fill="#5D6D7E">
    <text x="100" y="385">• 同日发布新模型，模型大战持续升级</text>
    <text x="100" y="415">• GPT-5.4 复杂推理能力提升</text>
    <text x="100" y="445">• Claude Opus 4.7 引入安全机制自动检测高风险请求</text>
  </g>
  
  
  <path fill="#FFF9E6" stroke="#E74C3C" stroke-width="1" d="M88,520 H1192 A8,8 0 0 1 1200,528 V612 A8,8 0 0 1 1192,620 H88 A8,8 0 0 1 80,612 V528 A8,8 0 0 1 88,520 Z" />
  <text x="100" y="550" font-family="Arial" font-size="14" fill="#E74C3C" font-weight="bold">
    <tspan>🧠 模型大战升级：从参数竞赛转向能力竞争</tspan>
  </text>
  <text x="100" y="580" font-family="Arial" font-size="14" fill="#5D6D7E">
    <tspan>国产模型首次在真实工程任务中验证持续工作能力，价格对齐国际头部</tspan>
  </text>
  
  
  <text x="1200" y="680" text-anchor="end" font-family="Arial" font-size="14" fill="#7F8C8D">
    <tspan>5/15</tspan>
  </text>
</svg>