<?xml version="1.0" encoding="UTF-8"?>
<svg xmlns="http://www.w3.org/2000/svg" viewBox="0 0 1280 720">
  
  
  <rect width="1280" height="720" fill="#FFFFFF" />
  <rect y="0" width="1280" height="8" fill="#005587" />
  <rect x="0" y="0" width="8" height="720" fill="#005587" />
  
  
  <text x="80" y="60" font-family="Arial" font-size="32" font-weight="bold" fill="#005587">
    <tspan>趋势洞察</tspan>
  </text>
  <rect x="80" y="75" width="60" height="4" fill="#E74C3C" />
  
  
  <path fill="#FFF9E6" stroke="#E74C3C" stroke-width="2" d="M88,100 H1192 A8,8 0 0 1 1200,108 V252 A8,8 0 0 1 1192,260 H88 A8,8 0 0 1 80,252 V108 A8,8 0 0 1 88,100 Z" />
  <circle cx="120" cy="180" r="30" fill="#E74C3C" />
  <text x="120" y="188" text-anchor="middle" font-family="Arial" font-size="24" fill="#FFFFFF" font-weight="bold">1</text>
  <text x="170" y="135" font-family="Arial" font-size="20" fill="#E74C3C" font-weight="bold">
    <tspan>世界模型——从"语言"迈向"物理智能"</tspan>
  </text>
  <g font-family="Arial" font-size="14" fill="#5D6D7E">
    <text x="170" y="165">• 训练目标从"预测词"转向"预测状态"</text>
    <text x="170" y="190">• 应用：具身智能、机器人、自动驾驶、游戏、影视</text>
    <text x="170" y="215">• 时间窗口：2026-2027 年是关键落地期</text>
  </g>
  <path fill="#28A745" d="M174,230 H266 A4,4 0 0 1 270,234 V246 A4,4 0 0 1 266,250 H174 A4,4 0 0 1 170,246 V234 A4,4 0 0 1 174,230 Z" />
  <text x="220" y="245" text-anchor="middle" font-family="Arial" font-size="11" fill="#FFFFFF">强信号 ✅</text>
  
  
  <path fill="#E8F4F8" stroke="#005587" stroke-width="2" d="M88,280 H1192 A8,8 0 0 1 1200,288 V432 A8,8 0 0 1 1192,440 H88 A8,8 0 0 1 80,432 V288 A8,8 0 0 1 88,280 Z" />
  <circle cx="120" cy="360" r="30" fill="#005587" />
  <text x="120" y="368" text-anchor="middle" font-family="Arial" font-size="24" fill="#FFFFFF" font-weight="bold">2</text>
  <text x="170" y="315" font-family="Arial" font-size="20" fill="#005587" font-weight="bold">
    <tspan>AI 融资进入"寡头时代"，资本集中度创纪录</tspan>
  </text>
  <g font-family="Arial" font-size="14" fill="#5D6D7E">
    <text x="170" y="345">• Q1 AI 融资 3000 亿美元，占创投 80%</text>
    <text x="170" y="370">• 仅 24 笔基础 AI 投资吸走 1780 亿美元</text>
    <text x="170" y="395">• 尾部初创公司生存空间被压缩</text>
  </g>
  <path fill="#28A745" d="M174,410 H266 A4,4 0 0 1 270,414 V426 A4,4 0 0 1 266,430 H174 A4,4 0 0 1 170,426 V414 A4,4 0 0 1 174,410 Z" />
  <text x="220" y="425" text-anchor="middle" font-family="Arial" font-size="11" fill="#FFFFFF">强信号 ✅</text>
  
  
  <path fill="#F0F4F8" stroke="#5D6D7E" stroke-width="2" d="M88,460 H1192 A8,8 0 0 1 1200,468 V612 A8,8 0 0 1 1192,620 H88 A8,8 0 0 1 80,612 V468 A8,8 0 0 1 88,460 Z" />
  <circle cx="120" cy="540" r="30" fill="#5D6D7E" />
  <text x="120" y="548" text-anchor="middle" font-family="Arial" font-size="24" fill="#FFFFFF" font-weight="bold">3</text>
  <text x="170" y="495" font-family="Arial" font-size="20" fill="#5D6D7E" font-weight="bold">
    <tspan>中国大模型 IPO 竞速——第三股花落谁家</tspan>
  </text>
  <g font-family="Arial" font-size="14" fill="#5D6D7E">
    <text x="170" y="525">• 月之暗面（180亿估值）vs 阶跃星辰（100亿目标）</text>
    <text x="170" y="550">• VIE 架构监管趋严，主动调整成为必然</text>
    <text x="170" y="575">• 行业进入"合规化、资本化、商业化"下半场</text>
  </g>
  <path fill="#28A745" d="M174,590 H266 A4,4 0 0 1 270,594 V606 A4,4 0 0 1 266,610 H174 A4,4 0 0 1 170,606 V594 A4,4 0 0 1 174,590 Z" />
  <text x="220" y="605" text-anchor="middle" font-family="Arial" font-size="11" fill="#FFFFFF">强信号 ✅</text>
  
  
  <text x="1200" y="680" text-anchor="end" font-family="Arial" font-size="14" fill="#7F8C8D">
    <tspan>9/15</tspan>
  </text>
</svg>