<?xml version="1.0" encoding="UTF-8"?>
<svg xmlns="http://www.w3.org/2000/svg" viewBox="0 0 1280 720">
  
  
  <rect width="1280" height="720" fill="#FFFFFF" />
  <rect y="0" width="1280" height="8" fill="#005587" />
  <rect x="0" y="0" width="8" height="720" fill="#005587" />
  
  
  <text x="80" y="60" font-family="Arial" font-size="28" font-weight="bold" fill="#005587">
    <tspan>趋势 4：算力价格回归理性</tspan>
  </text>
  <rect x="80" y="75" width="60" height="4" fill="#E74C3C" />
  
  <path fill="#F8F9FA" stroke="#DEE2E6" stroke-width="1" d="M88,100 H612 A8,8 0 0 1 620,108 V242 A8,8 0 0 1 612,250 H88 A8,8 0 0 1 80,242 V108 A8,8 0 0 1 88,100 Z" />
  <text x="100" y="130" font-family="Arial" font-size="16" fill="#005587" font-weight="bold">
    <tspan>云厂商价格调整</tspan>
  </text>
  <g font-family="Arial" font-size="14" fill="#5D6D7E">
    <text x="100" y="160">• 阿里云上调 2-7%</text>
    <text x="100" y="185">• 腾讯云上调 5%</text>
    <text x="100" y="210">• 中国日均 Token 调用量突破 140 万亿</text>
  </g>
  
  <path fill="#E8F4F8" stroke="#005587" stroke-width="1" d="M668,100 H1192 A8,8 0 0 1 1200,108 V242 A8,8 0 0 1 1192,250 H668 A8,8 0 0 1 660,242 V108 A8,8 0 0 1 668,100 Z" />
  <text x="680" y="130" font-family="Arial" font-size="16" fill="#005587" font-weight="bold">
    <tspan>定价逻辑转变</tspan>
  </text>
  <g font-family="Arial" font-size="14" fill="#5D6D7E">
    <text x="680" y="160">• 从"硬件成本"转向"商业价值"</text>
    <text x="680" y="185">• 从"白菜价补贴"转向"价值回归"</text>
    <text x="680" y="210">• 全栈能力成为竞争核心</text>
  </g>
  
  
  <text x="80" y="290" font-family="Arial" font-size="28" font-weight="bold" fill="#005587">
    <tspan>机会矩阵</tspan>
  </text>
  <rect x="80" y="305" width="60" height="4" fill="#E74C3C" />
  
  
  <g font-family="Arial" font-size="13">
    
    <rect x="80" y="330" width="1120" height="40" fill="#005587" />
    <text x="180" y="355" text-anchor="middle" fill="#FFFFFF" font-weight="bold">领域</text>
    <text x="350" y="355" text-anchor="middle" fill="#FFFFFF" font-weight="bold">热度</text>
    <text x="520" y="355" text-anchor="middle" fill="#FFFFFF" font-weight="bold">成熟度</text>
    <text x="720" y="355" text-anchor="middle" fill="#FFFFFF" font-weight="bold">机会窗口</text>
    <text x="920" y="355" text-anchor="middle" fill="#FFFFFF" font-weight="bold">优先级</text>
    
    
    <rect x="80" y="370" width="1120" height="45" fill="#FFFFFF" stroke="#DEE2E6" stroke-width="1" />
    <text x="180" y="398" text-anchor="middle" fill="#2C3E50">世界模型</text>
    <text x="350" y="398" text-anchor="middle" fill="#E74C3C">🔴🔥🔥🔥🔥</text>
    <text x="520" y="398" text-anchor="middle" fill="#5D6D7E">🟡 中</text>
    <text x="720" y="398" text-anchor="middle" fill="#2C3E50">1-3 年</text>
    <path fill="#E74C3C" d="M874,380 H966 A4,4 0 0 1 970,384 V402 A4,4 0 0 1 966,406 H874 A4,4 0 0 1 870,402 V384 A4,4 0 0 1 874,380 Z" />
    <text x="920" y="398" text-anchor="middle" fill="#FFFFFF" font-size="12">🔴 高</text>
    
    
    <rect x="80" y="415" width="1120" height="45" fill="#F8F9FA" stroke="#DEE2E6" stroke-width="1" />
    <text x="180" y="443" text-anchor="middle" fill="#2C3E50">大模型 IPO</text>
    <text x="350" y="443" text-anchor="middle" fill="#E74C3C">🔴🔥🔥🔥</text>
    <text x="520" y="443" text-anchor="middle" fill="#28A745">🔴 高</text>
    <text x="720" y="443" text-anchor="middle" fill="#2C3E50">6-12 月</text>
    <path fill="#E74C3C" d="M874,425 H966 A4,4 0 0 1 970,429 V447 A4,4 0 0 1 966,451 H874 A4,4 0 0 1 870,447 V429 A4,4 0 0 1 874,425 Z" />
    <text x="920" y="443" text-anchor="middle" fill="#FFFFFF" font-size="12">🔴 高</text>
    
    
    <rect x="80" y="460" width="1120" height="45" fill="#FFFFFF" stroke="#DEE2E6" stroke-width="1" />
    <text x="180" y="488" text-anchor="middle" fill="#2C3E50">AI 云服务</text>
    <text x="350" y="488" text-anchor="middle" fill="#E74C3C">🔴🔥🔥🔥</text>
    <text x="520" y="488" text-anchor="middle" fill="#28A745">🔴 高</text>
    <text x="720" y="488" text-anchor="middle" fill="#2C3E50">立即</text>
    <path fill="#E74C3C" d="M874,470 H966 A4,4 0 0 1 970,474 V492 A4,4 0 0 1 966,496 H874 A4,4 0 0 1 870,492 V474 A4,4 0 0 1 874,470 Z" />
    <text x="920" y="488" text-anchor="middle" fill="#FFFFFF" font-size="12">🔴 高</text>
    
    
    <rect x="80" y="505" width="1120" height="45" fill="#F8F9FA" stroke="#DEE2E6" stroke-width="1" />
    <text x="180" y="533" text-anchor="middle" fill="#2C3E50">Agent 商业化</text>
    <text x="350" y="533" text-anchor="middle" fill="#E74C3C">🔴🔥🔥🔥</text>
    <text x="520" y="533" text-anchor="middle" fill="#5D6D7E">🟡 中</text>
    <text x="720" y="533" text-anchor="middle" fill="#2C3E50">3-6 月</text>
    <path fill="#E74C3C" d="M874,515 H966 A4,4 0 0 1 970,519 V537 A4,4 0 0 1 966,541 H874 A4,4 0 0 1 870,537 V519 A4,4 0 0 1 874,515 Z" />
    <text x="920" y="533" text-anchor="middle" fill="#FFFFFF" font-size="12">🔴 高</text>
  </g>
  
  
  <text x="1200" y="680" text-anchor="end" font-family="Arial" font-size="14" fill="#7F8C8D">
    <tspan>10/15</tspan>
  </text>
</svg>